<?xml version="1.0" encoding="iso-8859-1"?>
<!-- Generator: Adobe Illustrator 19.0.0, SVG Export Plug-In . SVG Version: 6.00 Build 0)  -->
<svg version="1.1" id="Capa_1" xmlns="http://www.w3.org/2000/svg" xmlns:xlink="http://www.w3.org/1999/xlink" x="0px" y="0px"
	 viewBox="0 0 372.96 372.96" style="enable-background:new 0 0 372.96 372.96;" xml:space="preserve">
<g>
	<g>
		<path d="M312.16,58.891c-33.04-24.32-78.56-39.4-128.72-39.4c-50.16,0-95.96,15.32-128.96,39.68C20.84,83.971,0,118.451,0,156.531
			c0.051,17.246,4.279,34.223,12.32,49.48c7.863,14.785,18.401,27.981,31.08,38.92l-31.56,65.52c-1.667,3.341-0.31,7.4,3.031,9.067
			c2.124,1.06,4.647,0.928,6.649-0.347l70.96-43.8c11.01,4.619,22.382,8.325,34,11.08c6.667,1.627,13.493,2.96,20.48,4
			c-6.149-11.422-9.378-24.188-9.4-37.16c0-28.84,16-53.48,38.64-70.28c25.017-17.583,54.945-26.822,85.52-26.4
			c30.575-0.422,60.503,8.817,85.52,26.4c4.361,3.212,8.479,6.741,12.32,10.56c1.147-3.067,2.16-6.173,3.04-9.32
			c2.597-9.109,3.943-18.528,4-28C366.6,118.091,345.8,83.691,312.16,58.891z"/>
	</g>
</g>
<g>
	<g>
		<path d="M347.88,306.451c7.078-6.421,12.98-14.029,17.44-22.48c4.976-9.421,7.597-19.906,7.64-30.56
			c0-23.52-12.76-44.72-33.4-59.92v0c-22.779-16.014-50.038-24.414-77.88-24c-27.842-0.414-55.101,7.986-77.88,24
			c-20.64,15.2-33.4,36.36-33.4,60c0,23.64,12.76,44.72,33.4,60c22.779,16.014,50.038,24.414,77.88,24
			c9.888,0.009,19.752-0.983,29.44-2.96c8.212-1.682,16.247-4.133,24-7.32l40.84,25.2c3.149,2.005,7.328,1.078,9.333-2.071
			c1.275-2.002,1.406-4.526,0.347-6.649L347.88,306.451z"/>
	</g>
</g>
<g>
</g>
<g>
</g>
<g>
</g>
<g>
</g>
<g>
</g>
<g>
</g>
<g>
</g>
<g>
</g>
<g>
</g>
<g>
</g>
<g>
</g>
<g>
</g>
<g>
</g>
<g>
</g>
<g>
</g>
</svg>
